<mxfile host="app.diagrams.net" modified="2023-08-09T03:17:52.201Z" agent="Mozilla/5.0 (Windows NT 10.0; Win64; x64) AppleWebKit/537.36 (KHTML, like Gecko) Chrome/115.0.0.0 Safari/537.36" version="21.6.6" etag="pGZz6vWyZeGNnSZfs0jT" type="github">
  <diagram name="Page-1" id="j8XDTk1O6crs8ro1E1MK">
    <mxGraphModel>
      <root>
        <mxCell id="0" />
        <mxCell id="1" parent="0" />
      </root>
    </mxGraphModel>
  </diagram>
</mxfile>
